<?xml version="1.0" encoding="UTF-8" standalone="no"?>
<!DOCTYPE svg PUBLIC "-//W3C//DTD SVG 1.1//EN" "http://www.w3.org/Graphics/SVG/1.1/DTD/svg11.dtd">
<svg width="100%" height="100%" viewBox="0 0 662 662" version="1.1" xmlns="http://www.w3.org/2000/svg" xmlns:xlink="http://www.w3.org/1999/xlink" xml:space="preserve" xmlns:serif="http://www.serif.com/" style="fill-rule:evenodd;clip-rule:evenodd;stroke-linejoin:round;stroke-miterlimit:1.41421;">
    <g transform="matrix(1,0,0,1,6.89823,2.94631)">
        <g transform="matrix(-0.89054,-0.454905,0.454905,-0.89054,119.392,1220.66)">
            <text x="206.555px" y="595.966px" style="font-family:'ArialMT', 'Arial', sans-serif;font-size:42px;stroke:black;stroke-width:1.22px;">C</text>
        </g>
        <g transform="matrix(-0.838077,-0.545551,0.545551,-0.838077,12.3462,1168.01)">
            <text x="179.509px" y="582.172px" style="font-family:'ArialMT', 'Arial', sans-serif;font-size:42px;stroke:black;stroke-width:1.22px;">C</text>
        </g>
        <g transform="matrix(-0.77606,-0.630659,0.630659,-0.77606,-83.1547,1101.73)">
            <text x="154.028px" y="565.626px" style="font-family:'ArialMT', 'Arial', sans-serif;font-size:42px;stroke:black;stroke-width:1.22px;">D</text>
        </g>
        <g transform="matrix(-0.707107,-0.707107,0.707107,-0.707107,-163.748,1025.2)">
            <text x="130.452px" y="546.513px" style="font-family:'ArialMT', 'Arial', sans-serif;font-size:42px;stroke:black;stroke-width:1.22px;">C</text>
        </g>
        <g transform="matrix(-0.612678,-0.790333,0.790333,-0.612678,-242.777,919.378)">
            <text x="103.893px" y="519.178px" style="font-family:'ArialMT', 'Arial', sans-serif;font-size:42px;stroke:black;stroke-width:1.22px;">A</text>
        </g>
        <g transform="matrix(-0.526343,-0.850272,0.850272,-0.526343,-290.476,832.377)">
            <text x="86.606px" y="497.096px" style="font-family:'ArialMT', 'Arial', sans-serif;font-size:42px;stroke:black;stroke-width:1.22px;">R</text>
        </g>
        <g transform="matrix(-0.431559,-0.902085,0.902085,-0.431559,-324.365,738.348)">
            <text x="70.449px" y="471.372px" style="font-family:'ArialMT', 'Arial', sans-serif;font-size:42px;stroke:black;stroke-width:1.22px;">M</text>
        </g>
        <g transform="matrix(-0.330645,-0.943755,0.943755,-0.330645,-341.096,637.481)">
            <text x="55.518px" y="439.701px" style="font-family:'ArialMT', 'Arial', sans-serif;font-size:42px;stroke:black;stroke-width:1.22px;">Y</text>
        </g>
        <g transform="matrix(-0.201837,-0.979419,0.979419,-0.201837,-344.532,530.794)">
            <text x="44.015px" y="405.782px" style="font-family:'ArialMT', 'Arial', sans-serif;font-size:42px;stroke:black;stroke-width:1.22px;">R</text>
        </g>
        <g transform="matrix(-0.104896,-0.994483,0.994483,-0.104896,-332.147,453.134)">
            <text x="37.853px" y="376.045px" style="font-family:'ArialMT', 'Arial', sans-serif;font-size:42px;stroke:black;stroke-width:1.22px;">E</text>
        </g>
        <g transform="matrix(-0.0114952,-0.999934,0.999934,-0.0114952,-312.832,387.052)">
            <text x="34.898px" y="348.154px" style="font-family:'ArialMT', 'Arial', sans-serif;font-size:42px;stroke:black;stroke-width:1.22px;">S</text>
        </g>
        <g transform="matrix(0.0862169,-0.996276,0.996276,0.0862169,-287.383,326.972)">
            <text x="34.553px" y="320.149px" style="font-family:'ArialMT', 'Arial', sans-serif;font-size:42px;stroke:black;stroke-width:1.22px;">E</text>
        </g>
        <g transform="matrix(0.180479,-0.983579,0.983579,0.180479,-257.097,275.787)">
            <text x="36.949px" y="292.176px" style="font-family:'ArialMT', 'Arial', sans-serif;font-size:42px;stroke:black;stroke-width:1.22px;">A</text>
        </g>
        <g transform="matrix(0.283699,-0.958913,0.958913,0.283699,-223.733,229.683)">
            <text x="41.872px" y="264.598px" style="font-family:'ArialMT', 'Arial', sans-serif;font-size:42px;stroke:black;stroke-width:1.22px;">R</text>
        </g>
        <g transform="matrix(0.379356,-0.925251,0.925251,0.379356,-186.587,192.782)">
            <text x="50.405px" y="235.472px" style="font-family:'ArialMT', 'Arial', sans-serif;font-size:42px;stroke:black;stroke-width:1.22px;">C</text>
        </g>
        <g transform="matrix(0.473712,-0.88068,0.88068,0.473712,-150.052,163.668)">
            <text x="61.914px" y="207.381px" style="font-family:'ArialMT', 'Arial', sans-serif;font-size:42px;stroke:black;stroke-width:1.22px;">H</text>
        </g>
        <g transform="matrix(0.57767,-0.81627,0.81627,0.57767,-108.07,139.28)">
            <text x="80.563px" y="174.078px" style="font-family:'ArialMT', 'Arial', sans-serif;font-size:42px;stroke:black;stroke-width:1.22px;">L</text>
        </g>
        <g transform="matrix(0.645162,-0.764046,0.764046,0.645162,-85.0611,126.753)">
            <text x="93.933px" y="154.954px" style="font-family:'ArialMT', 'Arial', sans-serif;font-size:42px;stroke:black;stroke-width:1.22px;">A</text>
        </g>
        <g transform="matrix(0.716518,-0.697569,0.697569,0.716518,-61.3725,115.989)">
            <text x="112.021px" y="133.505px" style="font-family:'ArialMT', 'Arial', sans-serif;font-size:42px;stroke:black;stroke-width:1.22px;">B</text>
        </g>
        <g transform="matrix(0.784347,-0.620322,0.620322,0.784347,-42.1501,106.44)">
            <text x="132.011px" y="113.842px" style="font-family:'ArialMT', 'Arial', sans-serif;font-size:42px;stroke:black;stroke-width:1.22px;">O</text>
        </g>
        <g transform="matrix(0.84928,-0.527942,0.527942,0.84928,-25.6144,97.3379)">
            <text x="157.671px" y="93.53px" style="font-family:'ArialMT', 'Arial', sans-serif;font-size:42px;stroke:black;stroke-width:1.22px;">R</text>
        </g>
        <g transform="matrix(0.896005,-0.444045,0.444045,0.896005,-15.3349,89.5158)">
            <text x="183.442px" y="77.497px" style="font-family:'ArialMT', 'Arial', sans-serif;font-size:42px;stroke:black;stroke-width:1.22px;">A</text>
        </g>
        <g transform="matrix(0.929556,-0.368681,0.368681,0.929556,-9.97745,80.5169)">
            <text x="205.71px" y="66.368px" style="font-family:'ArialMT', 'Arial', sans-serif;font-size:42px;stroke:black;stroke-width:1.22px;">T</text>
        </g>
        <g transform="matrix(0.961409,-0.275124,0.275124,0.961409,-6.84499,65.149)">
            <text x="228.807px" y="56.974px" style="font-family:'ArialMT', 'Arial', sans-serif;font-size:42px;stroke:black;stroke-width:1.22px;">O</text>
        </g>
        <g transform="matrix(0.986487,-0.163842,0.163842,0.986487,-4.34105,43.2892)">
            <text x="260.258px" y="47.961px" style="font-family:'ArialMT', 'Arial', sans-serif;font-size:42px;stroke:black;stroke-width:1.22px;">R</text>
        </g>
        <g transform="matrix(0.997431,-0.0716315,0.0716315,0.997431,-2.34215,20.843)">
            <text x="289.43px" y="43.077px" style="font-family:'ArialMT', 'Arial', sans-serif;font-size:42px;stroke:black;stroke-width:1.22px;">Y</text>
        </g>
        <g transform="matrix(0.92202,0.387142,-0.387142,0.92202,55.847,-159.688)">
            <text x="424.32px" y="58.786px" style="font-family:'ArialMT', 'Arial', sans-serif;font-size:42px;stroke:black;stroke-width:1.22px;">T</text>
        </g>
        <g transform="matrix(0.887149,0.461483,-0.461483,0.887149,81.3334,-197.858)">
            <text x="445.219px" y="67.37px" style="font-family:'ArialMT', 'Arial', sans-serif;font-size:42px;stroke:black;stroke-width:1.22px;">A</text>
        </g>
        <g transform="matrix(0.835919,0.548853,-0.548853,0.835919,121.165,-244.844)">
            <text x="470.086px" y="80.227px" style="font-family:'ArialMT', 'Arial', sans-serif;font-size:42px;stroke:black;stroke-width:1.22px;">C</text>
        </g>
        <g transform="matrix(0.779578,0.626306,-0.626306,0.779578,169.936,-288.903)">
            <text x="495.411px" y="96.975px" style="font-family:'ArialMT', 'Arial', sans-serif;font-size:42px;stroke:black;stroke-width:1.22px;">T</text>
        </g>
        <g transform="matrix(0.737852,0.674962,-0.674962,0.737852,211.509,-318.12)">
            <text x="515.292px" y="113.231px" style="font-family:'ArialMT', 'Arial', sans-serif;font-size:42px;stroke:black;stroke-width:1.22px;">I</text>
        </g>
        <g transform="matrix(0.687094,0.726569,-0.726569,0.687094,251.811,-343.007)">
            <text x="524.137px" y="120.849px" style="font-family:'ArialMT', 'Arial', sans-serif;font-size:42px;stroke:black;stroke-width:1.22px;">C</text>
        </g>
        <g transform="matrix(0.611644,0.791133,-0.791133,0.611644,324.718,-375.624)">
            <text x="544.958px" y="142.935px" style="font-family:'ArialMT', 'Arial', sans-serif;font-size:42px;stroke:black;stroke-width:1.22px;">A</text>
        </g>
        <g transform="matrix(0.537177,0.84347,-0.84347,0.537177,399.416,-397.631)">
            <text x="562.038px" y="165.141px" style="font-family:'ArialMT', 'Arial', sans-serif;font-size:42px;stroke:black;stroke-width:1.22px;">L</text>
        </g>
        <g transform="matrix(0.433447,0.901179,-0.901179,0.433447,500.441,-412.939)">
            <text x="578.638px" y="191.54px" style="font-family:'ArialMT', 'Arial', sans-serif;font-size:42px;stroke:black;stroke-width:1.22px;">D</text>
        </g>
        <g transform="matrix(0.367968,0.929839,-0.929839,0.367968,577.511,-411.578)">
            <text x="591.51px" y="219.025px" style="font-family:'ArialMT', 'Arial', sans-serif;font-size:42px;stroke:black;stroke-width:1.22px;">I</text>
        </g>
        <g transform="matrix(0.303707,0.952766,-0.952766,0.303707,633.965,-407.913)">
            <text x="596.064px" y="229.783px" style="font-family:'ArialMT', 'Arial', sans-serif;font-size:42px;stroke:black;stroke-width:1.22px;">S</text>
        </g>
        <g transform="matrix(0.21275,0.977107,-0.977107,0.21275,726.542,-388.744)">
            <text x="604.519px" y="256.507px" style="font-family:'ArialMT', 'Arial', sans-serif;font-size:42px;stroke:black;stroke-width:1.22px;">T</text>
        </g>
        <g transform="matrix(0.112548,0.993646,-0.993646,0.112548,821.284,-356.409)">
            <text x="610.171px" y="281.576px" style="font-family:'ArialMT', 'Arial', sans-serif;font-size:42px;stroke:black;stroke-width:1.22px;">R</text>
        </g>
        <g transform="matrix(0.0451581,0.99898,-0.99898,0.0451581,897.043,-315.031)">
            <text x="613.318px" y="311.739px" style="font-family:'ArialMT', 'Arial', sans-serif;font-size:42px;stroke:black;stroke-width:1.22px;">I</text>
        </g>
        <g transform="matrix(-0.0233829,0.999727,-0.999727,-0.0233829,951.789,-283.036)">
            <text x="614.141px" y="323.376px" style="font-family:'ArialMT', 'Arial', sans-serif;font-size:42px;stroke:black;stroke-width:1.22px;">B</text>
        </g>
        <g transform="matrix(-0.12156,0.992584,-0.992584,-0.12156,1036.94,-214.896)">
            <text x="613.564px" y="351.401px" style="font-family:'ArialMT', 'Arial', sans-serif;font-size:42px;stroke:black;stroke-width:1.22px;">U</text>
        </g>
        <g transform="matrix(-0.217716,0.976012,-0.976012,-0.217716,1114.91,-130.511)">
            <text x="609.757px" y="381.55px" style="font-family:'ArialMT', 'Arial', sans-serif;font-size:42px;stroke:black;stroke-width:1.22px;">T</text>
        </g>
        <g transform="matrix(-0.309232,0.950987,-0.950987,-0.309232,1177.78,-42.3047)">
            <text x="604.257px" y="406.601px" style="font-family:'ArialMT', 'Arial', sans-serif;font-size:42px;stroke:black;stroke-width:1.22px;">E</text>
        </g>
        <g transform="matrix(-0.403833,0.914833,-0.914833,-0.403833,1232.64,63.3158)">
            <text x="595.692px" y="433.295px" style="font-family:'ArialMT', 'Arial', sans-serif;font-size:42px;stroke:black;stroke-width:1.22px;">D</text>
        </g>
        <g transform="matrix(-0.511204,0.85946,-0.85946,-0.511204,1278.27,208.856)">
            <text x="579.745px" y="467.921px" style="font-family:'ArialMT', 'Arial', sans-serif;font-size:42px;stroke:black;stroke-width:1.22px;">L</text>
        </g>
        <g transform="matrix(-0.584527,0.811375,-0.811375,-0.584527,1295.92,312.648)">
            <text x="567.913px" y="488.12px" style="font-family:'ArialMT', 'Arial', sans-serif;font-size:42px;stroke:black;stroke-width:1.22px;">E</text>
        </g>
        <g transform="matrix(-0.662641,0.748937,-0.748937,-0.662641,1299.79,436.376)">
            <text x="551.611px" y="510.933px" style="font-family:'ArialMT', 'Arial', sans-serif;font-size:42px;stroke:black;stroke-width:1.22px;">D</text>
        </g>
        <g transform="matrix(-0.737852,0.674962,-0.674962,-0.737852,1284.01,568.732)">
            <text x="531.559px" y="533.713px" style="font-family:'ArialMT', 'Arial', sans-serif;font-size:42px;stroke:black;stroke-width:1.22px;">G</text>
        </g>
        <g transform="matrix(-0.805538,0.592544,-0.592544,-0.805538,1245.33,702.73)">
            <text x="507.351px" y="555.711px" style="font-family:'ArialMT', 'Arial', sans-serif;font-size:42px;stroke:black;stroke-width:1.22px;">E</text>
        </g>
        <g transform="matrix(-0.862434,0.50617,-0.50617,-0.862434,1192.75,820.765)">
            <text x="484.842px" y="572.465px" style="font-family:'ArialMT', 'Arial', sans-serif;font-size:42px;stroke:black;stroke-width:1.22px;">R</text>
        </g>
        <g transform="matrix(-0.992822,0.119602,-0.119602,-0.992822,811.868,1185.4)">
            <text x="370.362px" y="617.064px" style="font-family:'ArialMT', 'Arial', sans-serif;font-size:42px;stroke:black;stroke-width:1.22px;">2</text>
        </g>
        <g transform="matrix(-0.999261,0.0384309,-0.0384309,-0.999261,717.848,1225.87)">
            <text x="347.142px" y="619.834px" style="font-family:'ArialMT', 'Arial', sans-serif;font-size:42px;stroke:black;stroke-width:1.22px;">0</text>
        </g>
        <g transform="matrix(-0.99935,-0.0360558,0.0360558,-0.99935,625.008,1252.61)">
            <text x="323.799px" y="620.668px" style="font-family:'ArialMT', 'Arial', sans-serif;font-size:42px;stroke:black;stroke-width:1.22px;">1</text>
        </g>
        <g transform="matrix(-0.992632,-0.121168,0.121168,-0.992632,523.602,1271.36)">
            <text x="300.456px" y="619.759px" style="font-family:'ArialMT', 'Arial', sans-serif;font-size:42px;stroke:black;stroke-width:1.22px;">9</text>
        </g>
    </g>
</svg>
