<?xml version="1.0" encoding="UTF-8" standalone="no"?>
<!DOCTYPE svg PUBLIC "-//W3C//DTD SVG 1.1//EN" "http://www.w3.org/Graphics/SVG/1.1/DTD/svg11.dtd">
<svg width="100%" height="100%" viewBox="0 0 1800 1800" version="1.1" xmlns="http://www.w3.org/2000/svg" xmlns:xlink="http://www.w3.org/1999/xlink" xml:space="preserve" xmlns:serif="http://www.serif.com/" style="fill-rule:evenodd;clip-rule:evenodd;stroke-linejoin:round;stroke-miterlimit:2;">
    <g transform="matrix(-0.193966,-0.981008,0.981008,-0.193966,139.573,1870.86)">
        <g transform="matrix(0.705734,-0.708477,0.708477,0.705734,-345.71,557.874)">
            <g transform="matrix(50,0,0,50,498.716,695.104)">
                <path d="M0.55,-0.293L0.744,-0.234C0.731,-0.18 0.71,-0.135 0.682,-0.098C0.654,-0.062 0.619,-0.034 0.578,-0.016C0.536,0.003 0.484,0.012 0.419,0.012C0.342,0.012 0.278,0.001 0.229,-0.022C0.179,-0.044 0.137,-0.084 0.101,-0.141C0.065,-0.198 0.047,-0.271 0.047,-0.36C0.047,-0.478 0.079,-0.569 0.142,-0.633C0.205,-0.696 0.294,-0.728 0.409,-0.728C0.499,-0.728 0.57,-0.71 0.622,-0.673C0.673,-0.637 0.712,-0.581 0.737,-0.505L0.542,-0.462C0.535,-0.484 0.528,-0.5 0.52,-0.51C0.508,-0.527 0.493,-0.54 0.475,-0.549C0.457,-0.558 0.437,-0.563 0.415,-0.563C0.364,-0.563 0.326,-0.542 0.299,-0.502C0.279,-0.472 0.269,-0.425 0.269,-0.361C0.269,-0.282 0.281,-0.227 0.305,-0.198C0.329,-0.169 0.363,-0.154 0.407,-0.154C0.449,-0.154 0.481,-0.166 0.503,-0.189C0.524,-0.213 0.54,-0.248 0.55,-0.293Z" style="fill-rule:nonzero;"/>
            </g>
        </g>
        <g transform="matrix(0.770749,-0.637139,0.637139,0.770749,-304.641,488.287)">
            <g transform="matrix(50,0,0,50,526.209,667.476)">
                <path d="M0.55,-0.293L0.744,-0.234C0.731,-0.18 0.71,-0.135 0.682,-0.098C0.654,-0.062 0.619,-0.034 0.578,-0.016C0.536,0.003 0.484,0.012 0.419,0.012C0.342,0.012 0.278,0.001 0.229,-0.022C0.179,-0.044 0.137,-0.084 0.101,-0.141C0.065,-0.198 0.047,-0.271 0.047,-0.36C0.047,-0.478 0.079,-0.569 0.142,-0.633C0.205,-0.696 0.294,-0.728 0.409,-0.728C0.499,-0.728 0.57,-0.71 0.622,-0.673C0.673,-0.637 0.712,-0.581 0.737,-0.505L0.542,-0.462C0.535,-0.484 0.528,-0.5 0.52,-0.51C0.508,-0.527 0.493,-0.54 0.475,-0.549C0.457,-0.558 0.437,-0.563 0.415,-0.563C0.364,-0.563 0.326,-0.542 0.299,-0.502C0.279,-0.472 0.269,-0.425 0.269,-0.361C0.269,-0.282 0.281,-0.227 0.305,-0.198C0.329,-0.169 0.363,-0.154 0.407,-0.154C0.449,-0.154 0.481,-0.166 0.503,-0.189C0.524,-0.213 0.54,-0.248 0.55,-0.293Z" style="fill-rule:nonzero;"/>
            </g>
        </g>
        <g transform="matrix(0.827738,-0.561115,0.561115,0.827738,-264.816,422.762)">
            <g transform="matrix(50,0,0,50,556.129,642.678)">
                <path d="M0.076,-0.716L0.405,-0.716C0.47,-0.716 0.522,-0.707 0.562,-0.689C0.602,-0.672 0.635,-0.647 0.661,-0.614C0.687,-0.581 0.706,-0.543 0.717,-0.499C0.729,-0.455 0.735,-0.409 0.735,-0.36C0.735,-0.284 0.726,-0.225 0.709,-0.182C0.691,-0.14 0.667,-0.105 0.636,-0.076C0.605,-0.048 0.572,-0.029 0.537,-0.02C0.488,-0.007 0.444,0 0.405,0L0.076,0L0.076,-0.716ZM0.297,-0.554L0.297,-0.163L0.352,-0.163C0.398,-0.163 0.431,-0.168 0.45,-0.178C0.47,-0.188 0.485,-0.206 0.496,-0.232C0.507,-0.257 0.513,-0.299 0.513,-0.356C0.513,-0.432 0.5,-0.484 0.476,-0.512C0.451,-0.54 0.41,-0.554 0.353,-0.554L0.297,-0.554Z" style="fill-rule:nonzero;"/>
            </g>
        </g>
        <g transform="matrix(0.875285,-0.483607,0.483607,0.875285,-226.826,361.964)">
            <g transform="matrix(50,0,0,50,588.382,620.764)">
                <path d="M0.55,-0.293L0.744,-0.234C0.731,-0.18 0.71,-0.135 0.682,-0.098C0.654,-0.062 0.619,-0.034 0.578,-0.016C0.536,0.003 0.484,0.012 0.419,0.012C0.342,0.012 0.278,0.001 0.229,-0.022C0.179,-0.044 0.137,-0.084 0.101,-0.141C0.065,-0.198 0.047,-0.271 0.047,-0.36C0.047,-0.478 0.079,-0.569 0.142,-0.633C0.205,-0.696 0.294,-0.728 0.409,-0.728C0.499,-0.728 0.57,-0.71 0.622,-0.673C0.673,-0.637 0.712,-0.581 0.737,-0.505L0.542,-0.462C0.535,-0.484 0.528,-0.5 0.52,-0.51C0.508,-0.527 0.493,-0.54 0.475,-0.549C0.457,-0.558 0.437,-0.563 0.415,-0.563C0.364,-0.563 0.326,-0.542 0.299,-0.502C0.279,-0.472 0.269,-0.425 0.269,-0.361C0.269,-0.282 0.281,-0.227 0.305,-0.198C0.329,-0.169 0.363,-0.154 0.407,-0.154C0.449,-0.154 0.481,-0.166 0.503,-0.189C0.524,-0.213 0.54,-0.248 0.55,-0.293Z" style="fill-rule:nonzero;"/>
            </g>
        </g>
        <g transform="matrix(0.929856,-0.367924,0.367924,0.929856,-174.136,276.273)">
            <g transform="matrix(50,0,0,50,637.493,594.83)">
                <path d="M0.513,-0.118L0.262,-0.118L0.227,0L0.001,0L0.271,-0.716L0.512,-0.716L0.781,0L0.549,0L0.513,-0.118ZM0.467,-0.273L0.388,-0.53L0.31,-0.273L0.467,-0.273Z" style="fill-rule:nonzero;"/>
            </g>
        </g>
        <g transform="matrix(0.959922,-0.280267,0.280267,0.959922,-135.668,212.079)">
            <g transform="matrix(50,0,0,50,673.705,580.408)">
                <path d="M0.076,0L0.076,-0.716L0.445,-0.716C0.513,-0.716 0.565,-0.71 0.602,-0.698C0.638,-0.687 0.667,-0.665 0.689,-0.633C0.711,-0.601 0.722,-0.563 0.722,-0.517C0.722,-0.477 0.714,-0.443 0.697,-0.414C0.68,-0.385 0.657,-0.362 0.627,-0.344C0.608,-0.333 0.582,-0.323 0.549,-0.316C0.576,-0.307 0.595,-0.298 0.607,-0.29C0.615,-0.284 0.627,-0.271 0.642,-0.252C0.658,-0.233 0.668,-0.218 0.673,-0.207L0.78,0L0.53,0L0.412,-0.219C0.397,-0.247 0.384,-0.265 0.372,-0.274C0.356,-0.285 0.338,-0.291 0.318,-0.291L0.298,-0.291L0.298,0L0.076,0ZM0.298,-0.426L0.392,-0.426C0.402,-0.426 0.421,-0.429 0.45,-0.436C0.465,-0.438 0.477,-0.446 0.486,-0.458C0.495,-0.47 0.5,-0.484 0.5,-0.5C0.5,-0.523 0.493,-0.54 0.478,-0.553C0.463,-0.565 0.436,-0.571 0.396,-0.571L0.298,-0.571L0.298,-0.426Z" style="fill-rule:nonzero;"/>
            </g>
        </g>
        <g transform="matrix(0.981638,-0.190755,0.190755,0.981638,-95.5284,146.078)">
            <g transform="matrix(50,0,0,50,710.99,569.231)">
                <path d="M0.071,-0.716L0.362,-0.716L0.474,-0.28L0.585,-0.716L0.876,-0.716L0.876,0L0.695,0L0.695,-0.546L0.555,0L0.391,0L0.252,-0.546L0.252,0L0.071,0L0.071,-0.716Z" style="fill-rule:nonzero;"/>
            </g>
        </g>
        <g transform="matrix(0.995299,-0.0968484,0.0968484,0.995299,-50.7152,75.9849)">
            <g transform="matrix(50,0,0,50,757.375,560.418)">
                <path d="M0.001,-0.716L0.247,-0.716L0.391,-0.474L0.535,-0.716L0.78,-0.716L0.501,-0.3L0.501,0L0.28,0L0.28,-0.3L0.001,-0.716Z" style="fill-rule:nonzero;"/>
            </g>
        </g>
        <g transform="matrix(0.999634,0.0270613,-0.0270613,0.999634,15.3425,-21.7898)">
            <g transform="matrix(50,0,0,50,812.727,555.954)">
                <path d="M0.076,0L0.076,-0.716L0.445,-0.716C0.513,-0.716 0.565,-0.71 0.602,-0.698C0.638,-0.687 0.667,-0.665 0.689,-0.633C0.711,-0.601 0.722,-0.563 0.722,-0.517C0.722,-0.477 0.714,-0.443 0.697,-0.414C0.68,-0.385 0.657,-0.362 0.627,-0.344C0.608,-0.333 0.582,-0.323 0.549,-0.316C0.576,-0.307 0.595,-0.298 0.607,-0.29C0.615,-0.284 0.627,-0.271 0.642,-0.252C0.658,-0.233 0.668,-0.218 0.673,-0.207L0.78,0L0.53,0L0.412,-0.219C0.397,-0.247 0.384,-0.265 0.372,-0.274C0.356,-0.285 0.338,-0.291 0.318,-0.291L0.298,-0.291L0.298,0L0.076,0ZM0.298,-0.426L0.392,-0.426C0.402,-0.426 0.421,-0.429 0.45,-0.436C0.465,-0.438 0.477,-0.446 0.486,-0.458C0.495,-0.47 0.5,-0.484 0.5,-0.5C0.5,-0.523 0.493,-0.54 0.478,-0.553C0.463,-0.565 0.436,-0.571 0.396,-0.571L0.298,-0.571L0.298,-0.426Z" style="fill-rule:nonzero;"/>
            </g>
        </g>
        <g transform="matrix(0.994406,0.105625,-0.105625,0.994406,63.5931,-86.8411)">
            <g transform="matrix(50,0,0,50,851.658,556.958)">
                <path d="M0.073,-0.716L0.666,-0.716L0.666,-0.563L0.294,-0.563L0.294,-0.449L0.639,-0.449L0.639,-0.303L0.294,-0.303L0.294,-0.162L0.676,-0.162L0.676,0L0.073,0L0.073,-0.716Z" style="fill-rule:nonzero;"/>
            </g>
        </g>
        <g transform="matrix(0.983147,0.182819,-0.182819,0.983147,117.475,-152.821)">
            <g transform="matrix(50,0,0,50,887.608,560.752)">
                <path d="M0.035,-0.237L0.245,-0.25C0.25,-0.216 0.259,-0.19 0.273,-0.172C0.296,-0.143 0.328,-0.128 0.371,-0.128C0.402,-0.128 0.427,-0.136 0.444,-0.151C0.461,-0.165 0.469,-0.183 0.469,-0.202C0.469,-0.221 0.461,-0.237 0.445,-0.252C0.429,-0.267 0.391,-0.28 0.332,-0.293C0.235,-0.315 0.165,-0.344 0.124,-0.38C0.082,-0.417 0.062,-0.463 0.062,-0.519C0.062,-0.555 0.072,-0.59 0.094,-0.623C0.115,-0.656 0.147,-0.681 0.19,-0.7C0.233,-0.719 0.291,-0.728 0.366,-0.728C0.457,-0.728 0.527,-0.711 0.575,-0.677C0.623,-0.643 0.652,-0.589 0.661,-0.515L0.452,-0.502C0.447,-0.535 0.435,-0.558 0.417,-0.573C0.399,-0.587 0.375,-0.595 0.344,-0.595C0.318,-0.595 0.299,-0.589 0.286,-0.578C0.273,-0.567 0.266,-0.554 0.266,-0.539C0.266,-0.527 0.271,-0.517 0.282,-0.508C0.293,-0.498 0.317,-0.49 0.356,-0.481C0.453,-0.461 0.522,-0.44 0.564,-0.418C0.606,-0.397 0.636,-0.37 0.656,-0.339C0.675,-0.307 0.684,-0.272 0.684,-0.233C0.684,-0.187 0.671,-0.145 0.646,-0.106C0.621,-0.067 0.585,-0.038 0.54,-0.018C0.494,0.002 0.437,0.012 0.367,0.012C0.245,0.012 0.161,-0.011 0.114,-0.058C0.067,-0.105 0.041,-0.165 0.035,-0.237Z" style="fill-rule:nonzero;"/>
            </g>
        </g>
        <g transform="matrix(0.964787,0.263032,-0.263032,0.964787,181.728,-222.826)">
            <g transform="matrix(50,0,0,50,923.095,567.322)">
                <path d="M0.073,-0.716L0.666,-0.716L0.666,-0.563L0.294,-0.563L0.294,-0.449L0.639,-0.449L0.639,-0.303L0.294,-0.303L0.294,-0.162L0.676,-0.162L0.676,0L0.073,0L0.073,-0.716Z" style="fill-rule:nonzero;"/>
            </g>
        </g>
        <g transform="matrix(0.939395,0.342836,-0.342836,0.939395,255.794,-293.496)">
            <g transform="matrix(50,0,0,50,958.038,576.754)">
                <path d="M0.513,-0.118L0.262,-0.118L0.227,0L0.001,0L0.271,-0.716L0.512,-0.716L0.781,0L0.549,0L0.513,-0.118ZM0.467,-0.273L0.388,-0.53L0.31,-0.273L0.467,-0.273Z" style="fill-rule:nonzero;"/>
            </g>
        </g>
        <g transform="matrix(0.903304,0.429001,-0.429001,0.903304,349.276,-369.63)">
            <g transform="matrix(50,0,0,50,994.587,589.983)">
                <path d="M0.076,0L0.076,-0.716L0.445,-0.716C0.513,-0.716 0.565,-0.71 0.602,-0.698C0.638,-0.687 0.667,-0.665 0.689,-0.633C0.711,-0.601 0.722,-0.563 0.722,-0.517C0.722,-0.477 0.714,-0.443 0.697,-0.414C0.68,-0.385 0.657,-0.362 0.627,-0.344C0.608,-0.333 0.582,-0.323 0.549,-0.316C0.576,-0.307 0.595,-0.298 0.607,-0.29C0.615,-0.284 0.627,-0.271 0.642,-0.252C0.658,-0.233 0.668,-0.218 0.673,-0.207L0.78,0L0.53,0L0.412,-0.219C0.397,-0.247 0.384,-0.265 0.372,-0.274C0.356,-0.285 0.338,-0.291 0.318,-0.291L0.298,-0.291L0.298,0L0.076,0ZM0.298,-0.426L0.392,-0.426C0.402,-0.426 0.421,-0.429 0.45,-0.436C0.465,-0.438 0.477,-0.446 0.486,-0.458C0.495,-0.47 0.5,-0.484 0.5,-0.5C0.5,-0.523 0.493,-0.54 0.478,-0.553C0.463,-0.565 0.436,-0.571 0.396,-0.571L0.298,-0.571L0.298,-0.426Z" style="fill-rule:nonzero;"/>
            </g>
        </g>
        <g transform="matrix(0.863734,0.503948,-0.503948,0.863734,445.683,-435.946)">
            <g transform="matrix(50,0,0,50,1028.96,606.154)">
                <path d="M0.55,-0.293L0.744,-0.234C0.731,-0.18 0.71,-0.135 0.682,-0.098C0.654,-0.062 0.619,-0.034 0.578,-0.016C0.536,0.003 0.484,0.012 0.419,0.012C0.342,0.012 0.278,0.001 0.229,-0.022C0.179,-0.044 0.137,-0.084 0.101,-0.141C0.065,-0.198 0.047,-0.271 0.047,-0.36C0.047,-0.478 0.079,-0.569 0.142,-0.633C0.205,-0.696 0.294,-0.728 0.409,-0.728C0.499,-0.728 0.57,-0.71 0.622,-0.673C0.673,-0.637 0.712,-0.581 0.737,-0.505L0.542,-0.462C0.535,-0.484 0.528,-0.5 0.52,-0.51C0.508,-0.527 0.493,-0.54 0.475,-0.549C0.457,-0.558 0.437,-0.563 0.415,-0.563C0.364,-0.563 0.326,-0.542 0.299,-0.502C0.279,-0.472 0.269,-0.425 0.269,-0.361C0.269,-0.282 0.281,-0.227 0.305,-0.198C0.329,-0.169 0.363,-0.154 0.407,-0.154C0.449,-0.154 0.481,-0.166 0.503,-0.189C0.524,-0.213 0.54,-0.248 0.55,-0.293Z" style="fill-rule:nonzero;"/>
            </g>
        </g>
        <g transform="matrix(0.811937,0.583746,-0.583746,0.811937,565.119,-502.659)">
            <g transform="matrix(50,0,0,50,1062.68,625.731)">
                <path d="M0.074,-0.716L0.295,-0.716L0.295,-0.465L0.537,-0.465L0.537,-0.716L0.759,-0.716L0.759,0L0.537,0L0.537,-0.29L0.295,-0.29L0.295,0L0.074,0L0.074,-0.716Z" style="fill-rule:nonzero;"/>
            </g>
        </g>
        <g transform="matrix(0.725792,0.687914,-0.687914,0.725792,758.753,-581.866)">
            <g transform="matrix(50,0,0,50,1109.25,660.82)">
                <path d="M0.073,-0.716L0.294,-0.716L0.294,-0.176L0.64,-0.176L0.64,0L0.073,0L0.073,-0.716Z" style="fill-rule:nonzero;"/>
            </g>
        </g>
        <g transform="matrix(0.66207,0.749442,-0.749442,0.66207,895.437,-618.545)">
            <g transform="matrix(50,0,0,50,1133.6,683.652)">
                <path d="M0.513,-0.118L0.262,-0.118L0.227,0L0.001,0L0.271,-0.716L0.512,-0.716L0.781,0L0.549,0L0.513,-0.118ZM0.467,-0.273L0.388,-0.53L0.31,-0.273L0.467,-0.273Z" style="fill-rule:nonzero;"/>
            </g>
        </g>
        <g transform="matrix(0.581611,0.813467,-0.813467,0.581611,1064.93,-644.928)">
            <g transform="matrix(50,0,0,50,1159.43,712.799)">
                <path d="M0.074,-0.716L0.488,-0.716C0.557,-0.716 0.61,-0.699 0.647,-0.665C0.684,-0.63 0.702,-0.588 0.702,-0.538C0.702,-0.495 0.689,-0.459 0.663,-0.429C0.645,-0.409 0.619,-0.393 0.585,-0.381C0.637,-0.368 0.675,-0.347 0.699,-0.317C0.723,-0.287 0.735,-0.249 0.735,-0.204C0.735,-0.167 0.727,-0.133 0.709,-0.104C0.692,-0.074 0.669,-0.05 0.639,-0.033C0.62,-0.022 0.592,-0.015 0.555,-0.01C0.505,-0.003 0.472,0 0.456,0L0.074,0L0.074,-0.716ZM0.297,-0.435L0.393,-0.435C0.428,-0.435 0.452,-0.441 0.465,-0.453C0.479,-0.465 0.485,-0.482 0.485,-0.504C0.485,-0.525 0.479,-0.542 0.465,-0.553C0.452,-0.565 0.428,-0.571 0.395,-0.571L0.297,-0.571L0.297,-0.435ZM0.297,-0.154L0.41,-0.154C0.448,-0.154 0.475,-0.161 0.49,-0.174C0.506,-0.188 0.514,-0.206 0.514,-0.229C0.514,-0.25 0.506,-0.267 0.49,-0.28C0.475,-0.292 0.448,-0.299 0.409,-0.299L0.297,-0.299L0.297,-0.154Z" style="fill-rule:nonzero;"/>
            </g>
        </g>
        <g transform="matrix(0.49244,0.870346,-0.870346,0.49244,1247.89,-651.069)">
            <g transform="matrix(50,0,0,50,1182.16,744.381)">
                <path d="M0.045,-0.357C0.045,-0.474 0.078,-0.565 0.143,-0.63C0.208,-0.695 0.299,-0.728 0.415,-0.728C0.534,-0.728 0.626,-0.696 0.69,-0.632C0.755,-0.568 0.787,-0.479 0.787,-0.363C0.787,-0.28 0.773,-0.211 0.745,-0.157C0.717,-0.104 0.676,-0.062 0.623,-0.032C0.57,-0.003 0.503,0.012 0.424,0.012C0.343,0.012 0.276,-0.001 0.223,-0.026C0.17,-0.052 0.128,-0.093 0.095,-0.148C0.062,-0.204 0.045,-0.274 0.045,-0.357ZM0.267,-0.356C0.267,-0.284 0.28,-0.232 0.307,-0.201C0.334,-0.169 0.37,-0.153 0.417,-0.153C0.464,-0.153 0.501,-0.169 0.527,-0.2C0.553,-0.231 0.566,-0.286 0.566,-0.366C0.566,-0.434 0.552,-0.483 0.525,-0.514C0.498,-0.545 0.461,-0.561 0.415,-0.561C0.37,-0.561 0.334,-0.545 0.307,-0.513C0.28,-0.482 0.267,-0.429 0.267,-0.356Z" style="fill-rule:nonzero;"/>
            </g>
        </g>
        <g transform="matrix(0.387671,0.921798,-0.921798,0.387671,1456.07,-630.657)">
            <g transform="matrix(50,0,0,50,1202.73,780.657)">
                <path d="M0.076,0L0.076,-0.716L0.445,-0.716C0.513,-0.716 0.565,-0.71 0.602,-0.698C0.638,-0.687 0.667,-0.665 0.689,-0.633C0.711,-0.601 0.722,-0.563 0.722,-0.517C0.722,-0.477 0.714,-0.443 0.697,-0.414C0.68,-0.385 0.657,-0.362 0.627,-0.344C0.608,-0.333 0.582,-0.323 0.549,-0.316C0.576,-0.307 0.595,-0.298 0.607,-0.29C0.615,-0.284 0.627,-0.271 0.642,-0.252C0.658,-0.233 0.668,-0.218 0.673,-0.207L0.78,0L0.53,0L0.412,-0.219C0.397,-0.247 0.384,-0.265 0.372,-0.274C0.356,-0.285 0.338,-0.291 0.318,-0.291L0.298,-0.291L0.298,0L0.076,0ZM0.298,-0.426L0.392,-0.426C0.402,-0.426 0.421,-0.429 0.45,-0.436C0.465,-0.438 0.477,-0.446 0.486,-0.458C0.495,-0.47 0.5,-0.484 0.5,-0.5C0.5,-0.523 0.493,-0.54 0.478,-0.553C0.463,-0.565 0.436,-0.571 0.396,-0.571L0.298,-0.571L0.298,-0.426Z" style="fill-rule:nonzero;"/>
            </g>
        </g>
        <g transform="matrix(0.288997,0.95733,-0.95733,0.288997,1647.64,-585.416)">
            <g transform="matrix(50,0,0,50,1217.94,816.525)">
                <path d="M0.513,-0.118L0.262,-0.118L0.227,0L0.001,0L0.271,-0.716L0.512,-0.716L0.781,0L0.549,0L0.513,-0.118ZM0.467,-0.273L0.388,-0.53L0.31,-0.273L0.467,-0.273Z" style="fill-rule:nonzero;"/>
            </g>
        </g>
        <g transform="matrix(0.194836,0.980836,-0.980836,0.194836,1823.11,-519.998)">
            <g transform="matrix(50,0,0,50,1228.28,850.443)">
                <path d="M0.023,-0.716L0.695,-0.716L0.695,-0.539L0.47,-0.539L0.47,0L0.249,0L0.249,-0.539L0.023,-0.539L0.023,-0.716Z" style="fill-rule:nonzero;"/>
            </g>
        </g>
        <g transform="matrix(0.0885789,0.996069,-0.996069,0.0885789,2006.55,-424.477)">
            <g transform="matrix(50,0,0,50,1235.23,884.216)">
                <path d="M0.045,-0.357C0.045,-0.474 0.078,-0.565 0.143,-0.63C0.208,-0.695 0.299,-0.728 0.415,-0.728C0.534,-0.728 0.626,-0.696 0.69,-0.632C0.755,-0.568 0.787,-0.479 0.787,-0.363C0.787,-0.28 0.773,-0.211 0.745,-0.157C0.717,-0.104 0.676,-0.062 0.623,-0.032C0.57,-0.003 0.503,0.012 0.424,0.012C0.343,0.012 0.276,-0.001 0.223,-0.026C0.17,-0.052 0.128,-0.093 0.095,-0.148C0.062,-0.204 0.045,-0.274 0.045,-0.357ZM0.267,-0.356C0.267,-0.284 0.28,-0.232 0.307,-0.201C0.334,-0.169 0.37,-0.153 0.417,-0.153C0.464,-0.153 0.501,-0.169 0.527,-0.2C0.553,-0.231 0.566,-0.286 0.566,-0.366C0.566,-0.434 0.552,-0.483 0.525,-0.514C0.498,-0.545 0.461,-0.561 0.415,-0.561C0.37,-0.561 0.334,-0.545 0.307,-0.513C0.28,-0.482 0.267,-0.429 0.267,-0.356Z" style="fill-rule:nonzero;"/>
            </g>
        </g>
        <g transform="matrix(-0.0317708,0.999495,-0.999495,-0.0317708,2203.54,-283.208)">
            <g transform="matrix(50,0,0,50,1238.95,925.702)">
                <path d="M0.076,0L0.076,-0.716L0.445,-0.716C0.513,-0.716 0.565,-0.71 0.602,-0.698C0.638,-0.687 0.667,-0.665 0.689,-0.633C0.711,-0.601 0.722,-0.563 0.722,-0.517C0.722,-0.477 0.714,-0.443 0.697,-0.414C0.68,-0.385 0.657,-0.362 0.627,-0.344C0.608,-0.333 0.582,-0.323 0.549,-0.316C0.576,-0.307 0.595,-0.298 0.607,-0.29C0.615,-0.284 0.627,-0.271 0.642,-0.252C0.658,-0.233 0.668,-0.218 0.673,-0.207L0.78,0L0.53,0L0.412,-0.219C0.397,-0.247 0.384,-0.265 0.372,-0.274C0.356,-0.285 0.338,-0.291 0.318,-0.291L0.298,-0.291L0.298,0L0.076,0ZM0.298,-0.426L0.392,-0.426C0.402,-0.426 0.421,-0.429 0.45,-0.436C0.465,-0.438 0.477,-0.446 0.486,-0.458C0.495,-0.47 0.5,-0.484 0.5,-0.5C0.5,-0.523 0.493,-0.54 0.478,-0.553C0.463,-0.565 0.436,-0.571 0.396,-0.571L0.298,-0.571L0.298,-0.426Z" style="fill-rule:nonzero;"/>
            </g>
        </g>
        <g transform="matrix(-0.1316,0.991303,-0.991303,-0.1316,2355.06,-138.017)">
            <g transform="matrix(50,0,0,50,1237.98,962.531)">
                <path d="M0.001,-0.716L0.247,-0.716L0.391,-0.474L0.535,-0.716L0.78,-0.716L0.501,-0.3L0.501,0L0.28,0L0.28,-0.3L0.001,-0.716Z" style="fill-rule:nonzero;"/>
            </g>
        </g>
        <g transform="matrix(-0.641885,0.766801,-0.766801,-0.641885,2795.84,998.17)">
            <g transform="matrix(50,0,0,50,1164.83,1151.95)">
                <path d="M0.023,-0.716L0.695,-0.716L0.695,-0.539L0.47,-0.539L0.47,0L0.249,0L0.249,-0.539L0.023,-0.539L0.023,-0.716Z" style="fill-rule:nonzero;"/>
            </g>
        </g>
        <g transform="matrix(-0.706264,0.707949,-0.707949,-0.706264,2785.33,1198.64)">
            <g transform="matrix(50,0,0,50,1144,1177.15)">
                <path d="M0.513,-0.118L0.262,-0.118L0.227,0L0.001,0L0.271,-0.716L0.512,-0.716L0.781,0L0.549,0L0.513,-0.118ZM0.467,-0.273L0.388,-0.53L0.31,-0.273L0.467,-0.273Z" style="fill-rule:nonzero;"/>
            </g>
        </g>
        <g transform="matrix(-0.770164,0.637846,-0.637846,-0.770164,2745.58,1418.98)">
            <g transform="matrix(50,0,0,50,1117.14,1204.15)">
                <path d="M0.55,-0.293L0.744,-0.234C0.731,-0.18 0.71,-0.135 0.682,-0.098C0.654,-0.062 0.619,-0.034 0.578,-0.016C0.536,0.003 0.484,0.012 0.419,0.012C0.342,0.012 0.278,0.001 0.229,-0.022C0.179,-0.044 0.137,-0.084 0.101,-0.141C0.065,-0.198 0.047,-0.271 0.047,-0.36C0.047,-0.478 0.079,-0.569 0.142,-0.633C0.205,-0.696 0.294,-0.728 0.409,-0.728C0.499,-0.728 0.57,-0.71 0.622,-0.673C0.673,-0.637 0.712,-0.581 0.737,-0.505L0.542,-0.462C0.535,-0.484 0.528,-0.5 0.52,-0.51C0.508,-0.527 0.493,-0.54 0.475,-0.549C0.457,-0.558 0.437,-0.563 0.415,-0.563C0.364,-0.563 0.326,-0.542 0.299,-0.502C0.279,-0.472 0.269,-0.425 0.269,-0.361C0.269,-0.282 0.281,-0.227 0.305,-0.198C0.329,-0.169 0.363,-0.154 0.407,-0.154C0.449,-0.154 0.481,-0.166 0.503,-0.189C0.524,-0.213 0.54,-0.248 0.55,-0.293Z" style="fill-rule:nonzero;"/>
            </g>
        </g>
        <g transform="matrix(-0.82416,0.566358,-0.566358,-0.82416,2679.14,1626.01)">
            <g transform="matrix(50,0,0,50,1087.15,1228.91)">
                <path d="M0.023,-0.716L0.695,-0.716L0.695,-0.539L0.47,-0.539L0.47,0L0.249,0L0.249,-0.539L0.023,-0.539L0.023,-0.716Z" style="fill-rule:nonzero;"/>
            </g>
        </g>
        <g transform="matrix(-0.859712,0.51078,-0.51078,-0.859712,2604.18,1783)">
            <g transform="matrix(50,0,0,50,1057.23,1249.13)">
                <rect x="0.082" y="-0.716" width="0.222" height="0.716" style="fill-rule:nonzero;"/>
            </g>
        </g>
        <g transform="matrix(-0.892979,0.450099,-0.450099,-0.892979,2536.82,1915.53)">
            <g transform="matrix(50,0,0,50,1040.68,1259.36)">
                <path d="M0.55,-0.293L0.744,-0.234C0.731,-0.18 0.71,-0.135 0.682,-0.098C0.654,-0.062 0.619,-0.034 0.578,-0.016C0.536,0.003 0.484,0.012 0.419,0.012C0.342,0.012 0.278,0.001 0.229,-0.022C0.179,-0.044 0.137,-0.084 0.101,-0.141C0.065,-0.198 0.047,-0.271 0.047,-0.36C0.047,-0.478 0.079,-0.569 0.142,-0.633C0.205,-0.696 0.294,-0.728 0.409,-0.728C0.499,-0.728 0.57,-0.71 0.622,-0.673C0.673,-0.637 0.712,-0.581 0.737,-0.505L0.542,-0.462C0.535,-0.484 0.528,-0.5 0.52,-0.51C0.508,-0.527 0.493,-0.54 0.475,-0.549C0.457,-0.558 0.437,-0.563 0.415,-0.563C0.364,-0.563 0.326,-0.542 0.299,-0.502C0.279,-0.472 0.269,-0.425 0.269,-0.361C0.269,-0.282 0.281,-0.227 0.305,-0.198C0.329,-0.169 0.363,-0.154 0.407,-0.154C0.449,-0.154 0.481,-0.166 0.503,-0.189C0.524,-0.213 0.54,-0.248 0.55,-0.293Z" style="fill-rule:nonzero;"/>
            </g>
        </g>
        <g transform="matrix(-0.929526,0.368756,-0.368756,-0.929526,2411.84,2092.85)">
            <g transform="matrix(50,0,0,50,1005.93,1276.89)">
                <path d="M0.513,-0.118L0.262,-0.118L0.227,0L0.001,0L0.271,-0.716L0.512,-0.716L0.781,0L0.549,0L0.513,-0.118ZM0.467,-0.273L0.388,-0.53L0.31,-0.273L0.467,-0.273Z" style="fill-rule:nonzero;"/>
            </g>
        </g>
        <g transform="matrix(-0.957375,0.288848,-0.288848,-0.957375,2270.98,2247.26)">
            <g transform="matrix(50,0,0,50,969.676,1291.2)">
                <path d="M0.073,-0.716L0.294,-0.716L0.294,-0.176L0.64,-0.176L0.64,0L0.073,0L0.073,-0.716Z" style="fill-rule:nonzero;"/>
            </g>
        </g>
        <g transform="matrix(-0.984623,0.174691,-0.174691,-0.984623,2056.95,2428.87)">
            <g transform="matrix(50,0,0,50,921.575,1304.97)">
                <path d="M0.076,-0.716L0.405,-0.716C0.47,-0.716 0.522,-0.707 0.562,-0.689C0.602,-0.672 0.635,-0.647 0.661,-0.614C0.687,-0.581 0.706,-0.543 0.717,-0.499C0.729,-0.455 0.735,-0.409 0.735,-0.36C0.735,-0.284 0.726,-0.225 0.709,-0.182C0.691,-0.14 0.667,-0.105 0.636,-0.076C0.605,-0.048 0.572,-0.029 0.537,-0.02C0.488,-0.007 0.444,0 0.405,0L0.076,0L0.076,-0.716ZM0.297,-0.554L0.297,-0.163L0.352,-0.163C0.398,-0.163 0.431,-0.168 0.45,-0.178C0.47,-0.188 0.485,-0.206 0.496,-0.232C0.507,-0.257 0.513,-0.299 0.513,-0.356C0.513,-0.432 0.5,-0.484 0.476,-0.512C0.451,-0.54 0.41,-0.554 0.353,-0.554L0.297,-0.554Z" style="fill-rule:nonzero;"/>
            </g>
        </g>
        <g transform="matrix(-0.993579,0.11314,-0.11314,-0.993579,1909.29,2514.59)">
            <g transform="matrix(50,0,0,50,883.288,1311.48)">
                <rect x="0.082" y="-0.716" width="0.222" height="0.716" style="fill-rule:nonzero;"/>
            </g>
        </g>
        <g transform="matrix(-0.998613,0.0526493,-0.0526493,-0.998613,1795.8,2580.55)">
            <g transform="matrix(50,0,0,50,863.913,1313.93)">
                <path d="M0.035,-0.237L0.245,-0.25C0.25,-0.216 0.259,-0.19 0.273,-0.172C0.296,-0.143 0.328,-0.128 0.371,-0.128C0.402,-0.128 0.427,-0.136 0.444,-0.151C0.461,-0.165 0.469,-0.183 0.469,-0.202C0.469,-0.221 0.461,-0.237 0.445,-0.252C0.429,-0.267 0.391,-0.28 0.332,-0.293C0.235,-0.315 0.165,-0.344 0.124,-0.38C0.082,-0.417 0.062,-0.463 0.062,-0.519C0.062,-0.555 0.072,-0.59 0.094,-0.623C0.115,-0.656 0.147,-0.681 0.19,-0.7C0.233,-0.719 0.291,-0.728 0.366,-0.728C0.457,-0.728 0.527,-0.711 0.575,-0.677C0.623,-0.643 0.652,-0.589 0.661,-0.515L0.452,-0.502C0.447,-0.535 0.435,-0.558 0.417,-0.573C0.399,-0.587 0.375,-0.595 0.344,-0.595C0.318,-0.595 0.299,-0.589 0.286,-0.578C0.273,-0.567 0.266,-0.554 0.266,-0.539C0.266,-0.527 0.271,-0.517 0.282,-0.508C0.293,-0.498 0.317,-0.49 0.356,-0.481C0.453,-0.461 0.522,-0.44 0.564,-0.418C0.606,-0.397 0.636,-0.37 0.656,-0.339C0.675,-0.307 0.684,-0.272 0.684,-0.233C0.684,-0.187 0.671,-0.145 0.646,-0.106C0.621,-0.067 0.585,-0.038 0.54,-0.018C0.494,0.002 0.437,0.012 0.367,0.012C0.245,0.012 0.161,-0.011 0.114,-0.058C0.067,-0.105 0.041,-0.165 0.035,-0.237Z" style="fill-rule:nonzero;"/>
            </g>
        </g>
        <g transform="matrix(-0.99969,-0.0248972,0.0248972,-0.99969,1622.77,2651.84)">
            <g transform="matrix(50,0,0,50,827.895,1315.82)">
                <path d="M0.023,-0.716L0.695,-0.716L0.695,-0.539L0.47,-0.539L0.47,0L0.249,0L0.249,-0.539L0.023,-0.539L0.023,-0.716Z" style="fill-rule:nonzero;"/>
            </g>
        </g>
        <g transform="matrix(-0.993841,-0.110815,0.110815,-0.993841,1432.8,2709.75)">
            <g transform="matrix(50,0,0,50,791.703,1315.06)">
                <path d="M0.076,0L0.076,-0.716L0.445,-0.716C0.513,-0.716 0.565,-0.71 0.602,-0.698C0.638,-0.687 0.667,-0.665 0.689,-0.633C0.711,-0.601 0.722,-0.563 0.722,-0.517C0.722,-0.477 0.714,-0.443 0.697,-0.414C0.68,-0.385 0.657,-0.362 0.627,-0.344C0.608,-0.333 0.582,-0.323 0.549,-0.316C0.576,-0.307 0.595,-0.298 0.607,-0.29C0.615,-0.284 0.627,-0.271 0.642,-0.252C0.658,-0.233 0.668,-0.218 0.673,-0.207L0.78,0L0.53,0L0.412,-0.219C0.397,-0.247 0.384,-0.265 0.372,-0.274C0.356,-0.285 0.338,-0.291 0.318,-0.291L0.298,-0.291L0.298,0L0.076,0ZM0.298,-0.426L0.392,-0.426C0.402,-0.426 0.421,-0.429 0.45,-0.436C0.465,-0.438 0.477,-0.446 0.486,-0.458C0.495,-0.47 0.5,-0.484 0.5,-0.5C0.5,-0.523 0.493,-0.54 0.478,-0.553C0.463,-0.565 0.436,-0.571 0.396,-0.571L0.298,-0.571L0.298,-0.426Z" style="fill-rule:nonzero;"/>
            </g>
        </g>
        <g transform="matrix(-0.985459,-0.169914,0.169914,-0.985459,1272.61,2729.96)">
            <g transform="matrix(50,0,0,50,753.118,1310.52)">
                <rect x="0.082" y="-0.716" width="0.222" height="0.716" style="fill-rule:nonzero;"/>
            </g>
        </g>
        <g transform="matrix(-0.971889,-0.235441,0.235441,-0.971889,1139.24,2751.14)">
            <g transform="matrix(50,0,0,50,733.859,1307.56)">
                <path d="M0.074,-0.716L0.488,-0.716C0.557,-0.716 0.61,-0.699 0.647,-0.665C0.684,-0.63 0.702,-0.588 0.702,-0.538C0.702,-0.495 0.689,-0.459 0.663,-0.429C0.645,-0.409 0.619,-0.393 0.585,-0.381C0.637,-0.368 0.675,-0.347 0.699,-0.317C0.723,-0.287 0.735,-0.249 0.735,-0.204C0.735,-0.167 0.727,-0.133 0.709,-0.104C0.692,-0.074 0.669,-0.05 0.639,-0.033C0.62,-0.022 0.592,-0.015 0.555,-0.01C0.505,-0.003 0.472,0 0.456,0L0.074,0L0.074,-0.716ZM0.297,-0.435L0.393,-0.435C0.428,-0.435 0.452,-0.441 0.465,-0.453C0.479,-0.465 0.485,-0.482 0.485,-0.504C0.485,-0.525 0.479,-0.542 0.465,-0.553C0.452,-0.565 0.428,-0.571 0.395,-0.571L0.297,-0.571L0.297,-0.435ZM0.297,-0.154L0.41,-0.154C0.448,-0.154 0.475,-0.161 0.49,-0.174C0.506,-0.188 0.514,-0.206 0.514,-0.229C0.514,-0.25 0.506,-0.267 0.49,-0.28C0.475,-0.292 0.448,-0.299 0.409,-0.299L0.297,-0.299L0.297,-0.154Z" style="fill-rule:nonzero;"/>
            </g>
        </g>
        <g transform="matrix(-0.94803,-0.31818,0.31818,-0.94803,945.011,2752.05)">
            <g transform="matrix(50,0,0,50,697.257,1298.85)">
                <path d="M0.539,-0.716L0.76,-0.716L0.76,-0.289C0.76,-0.247 0.753,-0.207 0.74,-0.17C0.727,-0.132 0.706,-0.099 0.678,-0.071C0.65,-0.043 0.62,-0.023 0.589,-0.012C0.546,0.004 0.495,0.012 0.435,0.012C0.4,0.012 0.362,0.01 0.321,0.005C0.279,0 0.245,-0.01 0.217,-0.024C0.19,-0.039 0.164,-0.059 0.141,-0.086C0.118,-0.113 0.103,-0.14 0.094,-0.168C0.081,-0.214 0.074,-0.254 0.074,-0.289L0.074,-0.716L0.294,-0.716L0.294,-0.279C0.294,-0.24 0.305,-0.21 0.327,-0.188C0.349,-0.166 0.379,-0.155 0.417,-0.155C0.455,-0.155 0.485,-0.166 0.507,-0.187C0.528,-0.209 0.539,-0.24 0.539,-0.279L0.539,-0.716Z" style="fill-rule:nonzero;"/>
            </g>
        </g>
        <g transform="matrix(-0.916091,-0.400969,0.400969,-0.916091,744.851,2726.77)">
            <g transform="matrix(50,0,0,50,657.733,1285.45)">
                <path d="M0.023,-0.716L0.695,-0.716L0.695,-0.539L0.47,-0.539L0.47,0L0.249,0L0.249,-0.539L0.023,-0.539L0.023,-0.716Z" style="fill-rule:nonzero;"/>
            </g>
        </g>
        <g transform="matrix(-0.878568,-0.477616,0.477616,-0.878568,566.483,2686.08)">
            <g transform="matrix(50,0,0,50,624.702,1271.02)">
                <path d="M0.073,-0.716L0.666,-0.716L0.666,-0.563L0.294,-0.563L0.294,-0.449L0.639,-0.449L0.639,-0.303L0.294,-0.303L0.294,-0.162L0.676,-0.162L0.676,0L0.073,0L0.073,-0.716Z" style="fill-rule:nonzero;"/>
            </g>
        </g>
        <g transform="matrix(-0.832587,-0.553894,0.553894,-0.832587,391.899,2626.13)">
            <g transform="matrix(50,0,0,50,592.82,1253.84)">
                <path d="M0.076,-0.716L0.405,-0.716C0.47,-0.716 0.522,-0.707 0.562,-0.689C0.602,-0.672 0.635,-0.647 0.661,-0.614C0.687,-0.581 0.706,-0.543 0.717,-0.499C0.729,-0.455 0.735,-0.409 0.735,-0.36C0.735,-0.284 0.726,-0.225 0.709,-0.182C0.691,-0.14 0.667,-0.105 0.636,-0.076C0.605,-0.048 0.572,-0.029 0.537,-0.02C0.488,-0.007 0.444,0 0.405,0L0.076,0L0.076,-0.716ZM0.297,-0.554L0.297,-0.163L0.352,-0.163C0.398,-0.163 0.431,-0.168 0.45,-0.178C0.47,-0.188 0.485,-0.206 0.496,-0.232C0.507,-0.257 0.513,-0.299 0.513,-0.356C0.513,-0.432 0.5,-0.484 0.476,-0.512C0.451,-0.54 0.41,-0.554 0.353,-0.554L0.297,-0.554Z" style="fill-rule:nonzero;"/>
            </g>
        </g>
        <g transform="matrix(-0.754676,-0.656097,0.656097,-0.754676,158.272,2503.48)">
            <g transform="matrix(50,0,0,50,547.178,1222.15)">
                <path d="M0.073,-0.716L0.294,-0.716L0.294,-0.176L0.64,-0.176L0.64,0L0.073,0L0.073,-0.716Z" style="fill-rule:nonzero;"/>
            </g>
        </g>
        <g transform="matrix(-0.695978,-0.718063,0.718063,-0.695978,23.195,2410.54)">
            <g transform="matrix(50,0,0,50,521.899,1200.36)">
                <path d="M0.073,-0.716L0.666,-0.716L0.666,-0.563L0.294,-0.563L0.294,-0.449L0.639,-0.449L0.639,-0.303L0.294,-0.303L0.294,-0.162L0.676,-0.162L0.676,0L0.073,0L0.073,-0.716Z" style="fill-rule:nonzero;"/>
            </g>
        </g>
        <g transform="matrix(-0.623667,-0.78169,0.78169,-0.623667,-111.712,2295.28)">
            <g transform="matrix(50,0,0,50,496.658,1174.53)">
                <path d="M0.076,-0.716L0.405,-0.716C0.47,-0.716 0.522,-0.707 0.562,-0.689C0.602,-0.672 0.635,-0.647 0.661,-0.614C0.687,-0.581 0.706,-0.543 0.717,-0.499C0.729,-0.455 0.735,-0.409 0.735,-0.36C0.735,-0.284 0.726,-0.225 0.709,-0.182C0.691,-0.14 0.667,-0.105 0.636,-0.076C0.605,-0.048 0.572,-0.029 0.537,-0.02C0.488,-0.007 0.444,0 0.405,0L0.076,0L0.076,-0.716ZM0.297,-0.554L0.297,-0.163L0.352,-0.163C0.398,-0.163 0.431,-0.168 0.45,-0.178C0.47,-0.188 0.485,-0.206 0.496,-0.232C0.507,-0.257 0.513,-0.299 0.513,-0.356C0.513,-0.432 0.5,-0.484 0.476,-0.512C0.451,-0.54 0.41,-0.554 0.353,-0.554L0.297,-0.554Z" style="fill-rule:nonzero;"/>
            </g>
        </g>
        <g transform="matrix(-0.539659,-0.841883,0.841883,-0.539659,-236.089,2159.18)">
            <g transform="matrix(50,0,0,50,472.272,1144.13)">
                <path d="M0.433,-0.259L0.433,-0.408L0.775,-0.408L0.775,-0.103C0.709,-0.058 0.652,-0.028 0.601,-0.012C0.551,0.004 0.491,0.012 0.422,0.012C0.337,0.012 0.268,-0.002 0.215,-0.031C0.161,-0.06 0.12,-0.103 0.09,-0.161C0.061,-0.218 0.046,-0.284 0.046,-0.358C0.046,-0.436 0.062,-0.504 0.094,-0.562C0.126,-0.62 0.174,-0.663 0.236,-0.693C0.284,-0.716 0.35,-0.728 0.432,-0.728C0.511,-0.728 0.57,-0.721 0.609,-0.707C0.648,-0.692 0.681,-0.67 0.707,-0.64C0.733,-0.61 0.752,-0.572 0.765,-0.525L0.552,-0.487C0.543,-0.514 0.528,-0.535 0.507,-0.549C0.486,-0.564 0.459,-0.571 0.427,-0.571C0.378,-0.571 0.34,-0.554 0.311,-0.52C0.282,-0.487 0.268,-0.433 0.268,-0.36C0.268,-0.283 0.282,-0.228 0.311,-0.194C0.34,-0.161 0.381,-0.145 0.433,-0.145C0.458,-0.145 0.481,-0.148 0.504,-0.155C0.526,-0.162 0.552,-0.175 0.581,-0.192L0.581,-0.259L0.433,-0.259Z" style="fill-rule:nonzero;"/>
            </g>
        </g>
        <g transform="matrix(-0.44537,-0.895347,0.895347,-0.44537,-342.676,2005.7)">
            <g transform="matrix(50,0,0,50,449.885,1108.99)">
                <path d="M0.073,-0.716L0.666,-0.716L0.666,-0.563L0.294,-0.563L0.294,-0.449L0.639,-0.449L0.639,-0.303L0.294,-0.303L0.294,-0.162L0.676,-0.162L0.676,0L0.073,0L0.073,-0.716Z" style="fill-rule:nonzero;"/>
            </g>
        </g>
        <g transform="matrix(-0.345928,-0.938261,0.938261,-0.345928,-426.681,1856.06)">
            <g transform="matrix(50,0,0,50,433.598,1076.75)">
                <path d="M0.076,0L0.076,-0.716L0.445,-0.716C0.513,-0.716 0.565,-0.71 0.602,-0.698C0.638,-0.687 0.667,-0.665 0.689,-0.633C0.711,-0.601 0.722,-0.563 0.722,-0.517C0.722,-0.477 0.714,-0.443 0.697,-0.414C0.68,-0.385 0.657,-0.362 0.627,-0.344C0.608,-0.333 0.582,-0.323 0.549,-0.316C0.576,-0.307 0.595,-0.298 0.607,-0.29C0.615,-0.284 0.627,-0.271 0.642,-0.252C0.658,-0.233 0.668,-0.218 0.673,-0.207L0.78,0L0.53,0L0.412,-0.219C0.397,-0.247 0.384,-0.265 0.372,-0.274C0.356,-0.285 0.338,-0.291 0.318,-0.291L0.298,-0.291L0.298,0L0.076,0ZM0.298,-0.426L0.392,-0.426C0.402,-0.426 0.421,-0.429 0.45,-0.436C0.465,-0.438 0.477,-0.446 0.486,-0.458C0.495,-0.47 0.5,-0.484 0.5,-0.5C0.5,-0.523 0.493,-0.54 0.478,-0.553C0.463,-0.565 0.436,-0.571 0.396,-0.571L0.298,-0.571L0.298,-0.426Z" style="fill-rule:nonzero;"/>
            </g>
        </g>
        <g transform="matrix(0.077553,-0.996988,0.996988,0.077553,-549.129,1256.44)">
            <g transform="matrix(50,0,0,50,404.421,924.973)">
                <path d="M0.623,0L0.026,0C0.033,-0.059 0.054,-0.114 0.089,-0.166C0.123,-0.218 0.188,-0.279 0.284,-0.35C0.342,-0.393 0.379,-0.426 0.396,-0.449C0.412,-0.471 0.42,-0.493 0.42,-0.513C0.42,-0.535 0.412,-0.553 0.396,-0.569C0.38,-0.584 0.359,-0.592 0.335,-0.592C0.31,-0.592 0.289,-0.584 0.273,-0.568C0.257,-0.552 0.246,-0.524 0.24,-0.483L0.041,-0.5C0.049,-0.556 0.063,-0.599 0.084,-0.631C0.105,-0.662 0.134,-0.686 0.172,-0.703C0.21,-0.72 0.263,-0.728 0.33,-0.728C0.4,-0.728 0.454,-0.72 0.493,-0.704C0.532,-0.688 0.562,-0.664 0.585,-0.631C0.607,-0.598 0.618,-0.561 0.618,-0.52C0.618,-0.476 0.605,-0.434 0.58,-0.395C0.554,-0.355 0.508,-0.311 0.44,-0.264C0.4,-0.236 0.374,-0.217 0.36,-0.206C0.347,-0.194 0.331,-0.18 0.313,-0.162L0.623,-0.162L0.623,0Z" style="fill-rule:nonzero;"/>
            </g>
        </g>
        <g transform="matrix(0.174175,-0.984715,0.984715,0.174175,-541.875,1137.16)">
            <g transform="matrix(50,0,0,50,407.038,891.646)">
                <path d="M0.041,-0.361C0.041,-0.497 0.066,-0.592 0.115,-0.646C0.163,-0.701 0.238,-0.728 0.338,-0.728C0.387,-0.728 0.426,-0.722 0.457,-0.71C0.488,-0.698 0.513,-0.683 0.533,-0.664C0.552,-0.645 0.568,-0.625 0.579,-0.604C0.59,-0.583 0.599,-0.558 0.606,-0.53C0.619,-0.477 0.626,-0.421 0.626,-0.363C0.626,-0.233 0.604,-0.138 0.56,-0.078C0.516,-0.018 0.44,0.012 0.333,0.012C0.273,0.012 0.224,0.003 0.187,-0.017C0.15,-0.036 0.119,-0.064 0.096,-0.101C0.078,-0.127 0.065,-0.163 0.055,-0.209C0.046,-0.255 0.041,-0.306 0.041,-0.361ZM0.238,-0.36C0.238,-0.269 0.246,-0.207 0.262,-0.174C0.279,-0.14 0.302,-0.124 0.333,-0.124C0.353,-0.124 0.37,-0.131 0.385,-0.145C0.4,-0.159 0.411,-0.181 0.418,-0.212C0.425,-0.243 0.428,-0.29 0.428,-0.355C0.428,-0.45 0.42,-0.514 0.404,-0.547C0.388,-0.579 0.364,-0.596 0.332,-0.596C0.299,-0.596 0.275,-0.579 0.26,-0.546C0.246,-0.512 0.238,-0.451 0.238,-0.36Z" style="fill-rule:nonzero;"/>
            </g>
        </g>
        <g transform="matrix(0.261186,-0.965288,0.965288,0.261186,-523.894,1033.12)">
            <g transform="matrix(50,0,0,50,412.956,858.802)">
                <path d="M0.492,-0.728L0.492,0L0.291,0L0.291,-0.477C0.258,-0.452 0.226,-0.432 0.196,-0.417C0.166,-0.402 0.127,-0.387 0.082,-0.373L0.082,-0.536C0.149,-0.558 0.202,-0.584 0.239,-0.615C0.277,-0.645 0.306,-0.683 0.327,-0.728L0.492,-0.728Z" style="fill-rule:nonzero;"/>
            </g>
        </g>
        <g transform="matrix(0.3572,-0.934028,0.934028,0.3572,-500.951,925.327)">
            <g transform="matrix(50,0,0,50,421.803,826.62)">
                <path d="M0.05,-0.161L0.248,-0.186C0.253,-0.158 0.262,-0.138 0.274,-0.127C0.286,-0.116 0.301,-0.11 0.319,-0.11C0.351,-0.11 0.376,-0.126 0.394,-0.158C0.407,-0.182 0.417,-0.232 0.423,-0.309C0.4,-0.285 0.375,-0.267 0.35,-0.255C0.325,-0.244 0.296,-0.238 0.263,-0.238C0.199,-0.238 0.145,-0.261 0.101,-0.307C0.057,-0.352 0.035,-0.41 0.035,-0.479C0.035,-0.527 0.046,-0.57 0.068,-0.609C0.091,-0.648 0.122,-0.678 0.161,-0.698C0.201,-0.718 0.25,-0.728 0.31,-0.728C0.381,-0.728 0.439,-0.716 0.482,-0.691C0.525,-0.667 0.56,-0.628 0.586,-0.574C0.612,-0.52 0.625,-0.45 0.625,-0.362C0.625,-0.233 0.597,-0.138 0.543,-0.078C0.489,-0.018 0.413,0.012 0.317,0.012C0.26,0.012 0.215,0.006 0.182,-0.008C0.149,-0.021 0.122,-0.04 0.1,-0.065C0.078,-0.091 0.062,-0.123 0.05,-0.161ZM0.416,-0.48C0.416,-0.519 0.406,-0.549 0.387,-0.571C0.367,-0.593 0.343,-0.604 0.315,-0.604C0.289,-0.604 0.267,-0.594 0.25,-0.574C0.232,-0.554 0.224,-0.525 0.224,-0.485C0.224,-0.445 0.233,-0.414 0.251,-0.393C0.269,-0.372 0.291,-0.361 0.318,-0.361C0.346,-0.361 0.37,-0.372 0.388,-0.392C0.407,-0.413 0.416,-0.442 0.416,-0.48Z" style="fill-rule:nonzero;"/>
            </g>
        </g>
    </g>
</svg>
